<svg xmlns="http://www.w3.org/2000/svg" width="24" height="24" viewBox="0 0 18 18">
  <g id="google_icon" data-name="google icon" transform="translate(-2.001 -2)">
    <path id="Path_11687" data-name="Path 11687" d="M25.1,15.289a7.564,7.564,0,0,0-.194-1.84H16.287v3.34h5.061a4.386,4.386,0,0,1-1.878,2.92l-.017.112,2.726,2.07.189.018A8.712,8.712,0,0,0,25.1,15.289Z" transform="translate(-5.102 -4.089)" fill="#4285f4"/>
    <path id="Path_11688" data-name="Path 11688" d="M11.728,25.989a8.858,8.858,0,0,0,6.082-2.18l-2.9-2.2a5.515,5.515,0,0,1-3.184.9A5.518,5.518,0,0,1,6.5,18.769l-.108.009-2.835,2.15-.037.1A9.2,9.2,0,0,0,11.728,25.989Z" transform="translate(-0.544 -5.989)" fill="#34a853"/>
    <path id="Path_11689" data-name="Path 11689" d="M5.961,15.511a5.44,5.44,0,0,1-.306-1.78,5.716,5.716,0,0,1,.3-1.78l-.005-.119L3.075,9.647l-.094.044a8.821,8.821,0,0,0,0,8.08Z" transform="translate(0 -2.731)" fill="#fbbc05"/>
    <path id="Path_11690" data-name="Path 11690" d="M11.728,5.48a5.145,5.145,0,0,1,3.551,1.34l2.592-2.48A8.922,8.922,0,0,0,11.728,2a9.2,9.2,0,0,0-8.2,4.96L6.494,9.22A5.541,5.541,0,0,1,11.728,5.48Z" transform="translate(-0.544)" fill="#eb4335"/>
  </g>
</svg>
