<svg id="Layer_1" enable-background="new 0 0 53 53" height="512" viewBox="0 0 53 53" width="512" xmlns="http://www.w3.org/2000/svg"><g><path d="m11.0553389 19.9513111v27.4984646c0 1.6876869 1.3702784 3.0502243 3.0502234 3.0502243h30.3551464c1.6799469 0 3.0347404-1.3625374 3.0347404-3.0502243v-34.2027636l-10.7454567-10.7454583h-22.6444302c-1.679945 0-3.0502234 1.3625367-3.0502234 3.0502241v2.7870064" fill="#ededed"/><path d="m47.5034714 13.2485704h-7.7029381c-1.6799812 0-3.0502243-1.3625441-3.0502243-3.0424767v-7.7029859c1.0998878 1.099103-3.9837761-3.9809196 10.7531624 10.7454626z" fill="#dbdbdb"/><path d="m8.7242613 19.9526024h16.8975449c1.0823689 0 1.9598007-.8774319 1.9598007-1.9598007v-7.6910124c0-1.0823669-.8774319-1.9597998-1.9598007-1.9597998h-17.6977473c-1.3406882 0-2.4275303 1.0868425-2.4275303 2.4275303v11.7066593" fill="#00aeff"/><g fill="#fff"><path d="m13.1262074 16.0013943c-.4898863.4786015-1.095727.7179031-1.817132.7179031s-1.3276339-.2393017-1.8175201-.7179031c-.4902754-.4786024-.7354126-1.0754938-.7354126-1.7898941 0-.7144012.2451372-1.3109035.7354126-1.789505.4898863-.4789915 1.0961151-.7182922 1.8175201-.7182922s1.3272457.2393007 1.817132.7182922c.4902754.4786015.7354126 1.0751038.7354126 1.789505-.0000001.7144003-.2451373 1.3112917-.7354126 1.7898941zm-.6000042-3.035038c-.3307409-.3420258-.7361908-.5132332-1.2171278-.5132332-.4813251 0-.8871641.1712074-1.2175169.5132332-.3307409.3424149-.4961119.7572031-.4961119 1.2451439 0 .4879398.1653709.9031181.4961119 1.2451429.3303528.3424149.7361917.5132332 1.2175169.5132332.480937 0 .8863869-.1708183 1.2171278-.5132332.3307419-.3420248.4961119-.7572031.4961119-1.2451429-.0000001-.4879408-.1653701-.9027291-.4961119-1.2451439z"/><path d="m18.252697 14.3122787h.8182926v1.6575975c-.4575901.504283-1.1120682.7564249-1.963047.7564249-.7167358 0-1.3167391-.2361889-1.8000107-.7077866-.4832706-.4715986-.7249069-1.0681-.7249069-1.789505s.2463055-1.3225756.7389154-1.8035126c.4922209-.480937 1.0879431-.7217941 1.7860022-.7217941.6984482 0 1.2786064.2038918 1.7412548.6105089l-.4369659.6245174c-.1898842-.1618681-.3805485-.2739315-.5723782-.3365774-.1918297-.0622578-.4151764-.0937748-.6692638-.0937748-.4902763 0-.9019508.1587553-1.2350273.4754887-.3326864.3167334-.4992247.733079-.4992247 1.2486458s.161869.9291887.4856062 1.241642c.3237381.3120642.7155685.4680958 1.1758823.4680958.4599247 0 .8447514-.0992222 1.154871-.2980566z"/><path d="m23.5037003 14.3122787h.8182926v1.6575975c-.4575901.504283-1.1120682.7564249-1.963047.7564249-.7167339 0-1.3167381-.2361889-1.8000107-.7077866-.4832706-.4715986-.7249069-1.0681-.7249069-1.789505s.2463055-1.3225756.7389164-1.8035126c.4922199-.480937 1.087944-.7217941 1.7860012-.7217941.6984482 0 1.2786083.2038918 1.7412567.6105089l-.4369678.6245174c-.1898842-.1618681-.3805466-.2739315-.5723763-.3365774-.1918316-.0622578-.4151783-.0937748-.6692657-.0937748-.4902744 0-.9019508.1587553-1.2350273.4754887-.3326855.3167334-.4992237.733079-.4992237 1.2486458s.161869.9291887.4856052 1.241642c.3237381.3120642.7155685.4680958 1.1758823.4680958.4599247 0 .8447533-.0992222 1.154871-.2980566z"/></g><path d="m38.3683815 26.2230453c-.5718575-.450758-1.298481-.6122208-2.0049019-.4440231l-9.9236622 2.3547668c-1.0697136.2489281-1.8165436 1.1908112-1.8165436 2.2874622v10.0784321c-.4911232-.1547699-1.049551-.2556648-1.6550388-.2556648-2.099102 0-3.6801853 1.0562859-3.6801853 2.4556618 0 1.3994141 1.5810833 2.448967 3.6801853 2.448967 1.9645386 0 3.4581127-.9284554 3.63978-2.2000389.0644474-.2575302.0198021.1335602.0336304-7.2728653l10.6031857-2.5094948v4.3058777c-.4978561-.1547699-1.0495491-.2556648-1.6617737-.2556648-2.0924072 0-3.6734505 1.0562859-3.6734505 2.4556618 0 1.3994141 1.5810432 2.448967 3.6734505 2.448967 1.9309082 0 3.4110565-.894825 3.6330452-2.1327362.0912552-.2962952.0260925.4081917.0471001-11.9218693 0-.7265835-.3296585-1.3993741-.8948212-1.8434392zm-1.1235504 4.8642636-10.6031857 2.5162716v-3.1823292c0-.1547279.1076698-.2892952.2623997-.3296604l9.9236603-2.348032c.1413002-.0336323.2421951.0202026.2892952.0605698.0471001.0403652.1278305.1210957.1278305.2623558z" fill="#2c3642"/><path d="m5.4965286 22.4761791c0 .6982441.2793217 1.3266582.738121 1.7855186.4588599.4587994 1.0872731.738121 1.7855177.738121h3.0392752v-5.0472164h-3.0392751c-1.3964882.0000001-2.5236388 1.1271497-2.5236388 2.5235768z" fill="#00a0d8"/></g></svg>