<svg id="Capa_1" enable-background="new 0 0 189.524 189.524" height="512" viewBox="0 0 189.524 189.524" width="512" xmlns="http://www.w3.org/2000/svg"><g><g><path clip-rule="evenodd" d="m94.762 180.048c47.102 0 85.286-38.183 85.286-85.286 0-47.102-38.183-85.286-85.286-85.286-47.102 0-85.286 38.184-85.286 85.286s38.184 85.286 85.286 85.286zm0 9.476c52.335 0 94.762-42.427 94.762-94.762 0-52.336-42.427-94.762-94.762-94.762-52.336 0-94.762 42.426-94.762 94.762 0 52.335 42.426 94.762 94.762 94.762z" fill-rule="evenodd"/></g><g><path clip-rule="evenodd" d="m119.386 94.762-43.577-29.051v58.103zm8.804-5.519c3.939 2.626 3.939 8.413 0 11.039l-51.545 34.364c-4.408 2.939-10.313-.222-10.313-5.52v-68.727c0-5.298 5.905-8.458 10.313-5.519z" fill-rule="evenodd"/></g></g></svg>