<svg id="Layer_1" height="512" viewBox="0 0 512 512" width="512" xmlns="http://www.w3.org/2000/svg" data-name="Layer 1"><path d="m167.75 399a30.71 30.71 0 0 1 -30.67-30.67v-225.49a30.71 30.71 0 0 1 30.67-30.67h137.66l69.51 71.88v184.3a30.71 30.71 0 0 1 -30.67 30.65z" fill="#bc0613"/><path d="m296.93 132.17h-129.18a10.67 10.67 0 0 0 -10.67 10.67v225.51a10.67 10.67 0 0 0 10.67 10.65h176.5a10.67 10.67 0 0 0 10.67-10.67v-176.19z" fill="#fff"/><path d="m307.48 192.24a9 9 0 0 1 -9-9l-1.65-51.31 58.33 60.32z" fill="#f00"/><path d="m296.93 132.17 58 60h-47.45a8.91 8.91 0 0 1 -8.91-8.91l-1.64-51.06m-.21-.5v.51l1.64 51.06a9.11 9.11 0 0 0 9.11 9.09h47.9l-.32-.33-58-60-.35-.37z" fill="#f00"/><g fill="#bcbec0"><path d="m189.16 222.33h133.93v7.71h-133.93z"/><path d="m189.16 235.79h133.93v7.71h-133.93z"/><path d="m189.16 249.26h133.93v7.71h-133.93z"/><path d="m189.16 262.73h133.93v7.71h-133.93z"/><path d="m189.16 276.2h133.93v7.71h-133.93z"/><path d="m225.96 176.34h55.23v3.98h-55.23z"/><path d="m225.96 184.3h55.23v3.98h-55.23z"/><path d="m225.96 192.27h55.23v3.98h-55.23z"/><path d="m225.96 200.23h55.23v3.98h-55.23z"/><path d="m189.16 175.86h27.76v27.76h-27.76z"/></g><path d="m166.08 379.83h179.84a9 9 0 0 0 9-9v-68.83h-197.84v68.8a9 9 0 0 0 9 9.03z" fill="#f00"/><path d="m215 317.51h30.13l.47.47v14q0 .88-5.23 5.71l-15.86 16v.31h20.62l.47.48v10.15l-.47.47h-30.13l-.48-.47v-16q0-.91 7-7.45l12.05-12.21v-.32h-18.57l-.48-.48v-10.17z" fill="#fff"/><path d="m251 317.51h10.15c.43.15.64.62.64 1.43v45.67l-.48.47h-10.31c-.42-.15-.63-.62-.63-1.43v-44.71c0-.81.21-1.28.63-1.43z" fill="#fff"/><path d="m267 317.51h22.83q7.62 2.79 7.62 10.62v10c0 3.41-.85 5.89-2.54 7.46q-2.64 3.65-9.2 3.64h-6.5a.84.84 0 0 0 -1 .95v14.12a1.12 1.12 0 0 1 -1.11.79h-9.52c-.74 0-1.1-.42-1.1-1.27v-45.82zm11.26 10.15v11.73l.63.64h4.6a2.23 2.23 0 0 0 2.54-1.75v-6.34l.16-3a2.29 2.29 0 0 0 -2.54-2.22h-4.44a.84.84 0 0 0 -.93.94z" fill="#fff"/></svg>